<svg xmlns="http://www.w3.org/2000/svg" viewBox="0 0 219.459 129.727">
  <defs>
    <style>
      .cls-1 {
        fill: #fbc644;
      }
    </style>
  </defs>
  <path id="パス_83" data-name="パス 83" class="cls-1" d="M163.466,63.376c10.255-13.127,14.152-33.637,14.152-45.738,0-8.614-3.282-12.511-6.563-12.511-8.409,0-17.023,16.2-17.023,39.585A76.09,76.09,0,0,0,156.7,64.4a17.99,17.99,0,0,1-7.794,4.512c0-10.46-5.128-16.818-11.281-16.818-3.692,0-6.358,3.077-6.358,7.589a14.222,14.222,0,0,0,10.05,13.332c-1.026,5.743-3.9,9.23-7.794,9.23-4.922,0-9.64-5.743-9.64-15.588,0-12.306,5.743-17.844,11.281-17.844a7.024,7.024,0,0,1,3.692.82c.82.41,1.641-.615,1.231-1.436a7.945,7.945,0,0,0-6.563-3.282c-8.614,0-17.434,8.614-17.434,22.356a17.274,17.274,0,0,0,.82,5.538c-2.461,3.692-8.409,9.23-10.87,9.23-2.051,0-3.487-1.641-3.487-6.768,0-2.051.615-7.589,1.026-12.306.41-4.1.82-8,.82-9.23a6.2,6.2,0,0,0-4.717-5.948c-8.819-1.436-12.306-2.461-14.357-4.307a1.155,1.155,0,0,0-1.846,1.231,8.981,8.981,0,0,0,4.512,4.717C85.528,62.146,80.4,81.22,73.837,81.22c-3.282,0-6.973-5.128-6.973-21.536a181.527,181.527,0,0,1,1.846-26.458H132.7c4.512,0,14.357-.615,16.408-4.512.41-.615.205-1.436-.41-1.231-16,1.436-67.684,1.231-79.785,1.231,1.231-7.589,2.461-12.306,2.461-14.357,0-3.692-.82-5.538-4.1-7.384a1.783,1.783,0,0,0-2.461.82c-1.846,4.717-3.692,12.306-5.128,20.92-10.255.41-15.178,1.436-18.254,3.487a.783.783,0,0,0,.615,1.436c3.077,0,9.435,0,17.023-.205a162.225,162.225,0,0,0-1.641,22.561c0,19.28,6.153,31.791,14.767,31.791,5.333,0,9.845-4.922,13.742-14.562a101.262,101.262,0,0,0,5.743-21.741c1.026.41,1.846.615,2.256.82,1.641.41,2.256,1.231,2.051,2.871C94.347,66.863,93.937,70.76,93.937,76.5c0,6.358,4.307,10.46,9.23,10.46,5.948,0,11.281-5.128,14.972-9.845,3.077,5.743,8.819,9.845,14.972,9.845,7.384,0,13.332-6.358,15.178-13.742a23.082,23.082,0,0,0,9.845-4.717,60.82,60.82,0,0,0,12.306,20.51c.615.82,1.846-.205,1.436-1.026a62.84,62.84,0,0,1-8.409-24.612m-27.689-3.282c0-2.256.82-3.487,2.051-3.487,1.641,0,3.9,2.461,3.9,10.255v2.051c-4.512-1.436-5.948-5.333-5.948-8.819m35.893-49.43c1.025,0,1.641,2.051,1.641,6.973,0,11.076-4.512,28.509-10.665,38.969-.205-2.871-.205-5.743-.205-8.614,0-22.151,5.743-37.329,9.23-37.329M42.456,51.07c6.153,2.871,9.024,7.384,9.024,13.127,0,10.665-10.46,24.2-27.689,24.2C9.845,88.4,0,79.169,0,66.863A17.868,17.868,0,0,1,4.922,54.557,1.722,1.722,0,0,1,7.794,56.2a28.971,28.971,0,0,0-.82,6.768c0,9.64,9.435,19.485,20.92,19.485,11.9,0,16.408-8.409,16.408-14.767,0-4.1-1.641-6.563-6.973-9.23-5.538-2.666-10.46-3.9-15.383-6.358C13.537,47.789,5.538,40.405,5.538,29.124,5.743,14.562,25.843,0,35.688,0a8.972,8.972,0,0,1,9.024,9.024c0,5.743-3.077,13.127-8.819,18.049a1.881,1.881,0,0,1-2.871-2.256l1.436-2.871a25.777,25.777,0,0,0,2.461-9.435c0-3.487-2.051-6.563-5.743-6.563C24,5.948,12.921,16,12.921,25.843c0,8.819,4.922,13.947,14.767,19.074,3.282,1.846,7.794,3.077,14.767,6.153m174.952-9.23a1.631,1.631,0,0,1,1.641,2.666c-18.254,20.1-29.74,47.789-34.662,84.3-.205,1.231-2.051,1.231-2.051,0-1.231-14.152.82-30.56,5.333-45.533-7.794-7.384-12.306-18.664-12.306-27.689s4.717-9.845,8.819-11.691a1.044,1.044,0,0,1,1.436,1.231,77.661,77.661,0,0,0-1.436,12.921c0,9.024,1.641,15.588,4.717,20.1,3.9-11.691,9.23-22.356,15.178-29.945a12.994,12.994,0,0,1,6.153-4.307c2.666-.82,4.512-1.436,7.179-2.051"/>
</svg>
